<mxfile host="app.diagrams.net" agent="Mozilla/5.0 (Macintosh; Intel Mac OS X 10_15_7) AppleWebKit/537.36 (KHTML, like Gecko) Chrome/130.0.0.0 Safari/537.36" version="24.8.6">
  <diagram name="PÃ¡gina-1" id="VIkds1nKFeMDb14dhIDM">
    <mxGraphModel dx="2558" dy="1241" grid="0" gridSize="10" guides="1" tooltips="1" connect="1" arrows="1" fold="1" page="0" pageScale="1" pageWidth="800" pageHeight="450" background="#D9E8FF" math="0" shadow="0">
      <root>
        <mxCell id="0" />
        <mxCell id="1" parent="0" />
        <mxCell id="4dFmbhaFxBzCHr-sWIdQ-84" style="edgeStyle=orthogonalEdgeStyle;rounded=1;orthogonalLoop=1;jettySize=auto;html=1;entryX=0;entryY=0.5;entryDx=0;entryDy=0;labelBackgroundColor=none;fontColor=default;strokeColor=#DDA15E;" edge="1" parent="1" source="4dFmbhaFxBzCHr-sWIdQ-38" target="4dFmbhaFxBzCHr-sWIdQ-74">
          <mxGeometry relative="1" as="geometry" />
        </mxCell>
        <mxCell id="4dFmbhaFxBzCHr-sWIdQ-38" value="FrontendMockProducer" style="swimlane;fontStyle=1;align=center;verticalAlign=top;childLayout=stackLayout;horizontal=1;startSize=26;horizontalStack=0;resizeParent=1;resizeParentMax=0;resizeLast=0;collapsible=1;marginBottom=0;whiteSpace=wrap;html=1;rounded=1;labelBackgroundColor=none;fillColor=#BC6C25;strokeColor=#DDA15E;fontColor=#FEFAE0;swimlaneFillColor=#000000;" vertex="1" parent="1">
          <mxGeometry x="-82" y="-250" width="160" height="60" as="geometry" />
        </mxCell>
        <mxCell id="4dFmbhaFxBzCHr-sWIdQ-40" value="" style="line;strokeWidth=1;fillColor=none;align=left;verticalAlign=middle;spacingTop=-1;spacingLeft=3;spacingRight=3;rotatable=0;labelPosition=right;points=[];portConstraint=eastwest;rounded=1;labelBackgroundColor=none;strokeColor=#DDA15E;fontColor=#FEFAE0;" vertex="1" parent="4dFmbhaFxBzCHr-sWIdQ-38">
          <mxGeometry y="26" width="160" height="8" as="geometry" />
        </mxCell>
        <mxCell id="4dFmbhaFxBzCHr-sWIdQ-41" value="+ queueUserToPlay(): void" style="text;strokeColor=none;fillColor=none;align=left;verticalAlign=top;spacingLeft=4;spacingRight=4;overflow=hidden;rotatable=0;points=[[0,0.5],[1,0.5]];portConstraint=eastwest;whiteSpace=wrap;html=1;rounded=1;labelBackgroundColor=none;fontColor=#FEFAE0;" vertex="1" parent="4dFmbhaFxBzCHr-sWIdQ-38">
          <mxGeometry y="34" width="160" height="26" as="geometry" />
        </mxCell>
        <mxCell id="4dFmbhaFxBzCHr-sWIdQ-144" style="edgeStyle=orthogonalEdgeStyle;rounded=1;orthogonalLoop=1;jettySize=auto;html=1;entryX=0.75;entryY=0;entryDx=0;entryDy=0;labelBackgroundColor=none;fontColor=default;strokeColor=#DDA15E;" edge="1" parent="1" source="4dFmbhaFxBzCHr-sWIdQ-42" target="4dFmbhaFxBzCHr-sWIdQ-69">
          <mxGeometry relative="1" as="geometry">
            <Array as="points">
              <mxPoint x="198" y="-126" />
              <mxPoint x="236" y="-126" />
            </Array>
          </mxGeometry>
        </mxCell>
        <mxCell id="4dFmbhaFxBzCHr-sWIdQ-42" value="MatchManagerProducer" style="swimlane;fontStyle=1;align=center;verticalAlign=top;childLayout=stackLayout;horizontal=1;startSize=26;horizontalStack=0;resizeParent=1;resizeParentMax=0;resizeLast=0;collapsible=1;marginBottom=0;whiteSpace=wrap;html=1;rounded=1;labelBackgroundColor=none;fillColor=#BC6C25;strokeColor=#DDA15E;fontColor=#FEFAE0;swimlaneFillColor=#000000;" vertex="1" parent="1">
          <mxGeometry x="108" y="-260" width="160" height="70" as="geometry" />
        </mxCell>
        <mxCell id="4dFmbhaFxBzCHr-sWIdQ-43" value="" style="line;strokeWidth=1;fillColor=none;align=left;verticalAlign=middle;spacingTop=-1;spacingLeft=3;spacingRight=3;rotatable=0;labelPosition=right;points=[];portConstraint=eastwest;rounded=1;labelBackgroundColor=none;strokeColor=#DDA15E;fontColor=#FEFAE0;" vertex="1" parent="4dFmbhaFxBzCHr-sWIdQ-42">
          <mxGeometry y="26" width="160" height="8" as="geometry" />
        </mxCell>
        <mxCell id="4dFmbhaFxBzCHr-sWIdQ-44" value="+ sendUser(User): void&lt;div&gt;+ sendMatch(Match: void&lt;/div&gt;" style="text;strokeColor=none;fillColor=none;align=left;verticalAlign=top;spacingLeft=4;spacingRight=4;overflow=hidden;rotatable=0;points=[[0,0.5],[1,0.5]];portConstraint=eastwest;whiteSpace=wrap;html=1;rounded=1;labelBackgroundColor=none;fontColor=#FEFAE0;" vertex="1" parent="4dFmbhaFxBzCHr-sWIdQ-42">
          <mxGeometry y="34" width="160" height="36" as="geometry" />
        </mxCell>
        <mxCell id="4dFmbhaFxBzCHr-sWIdQ-45" value="MatchRecommenderMockProducer" style="swimlane;fontStyle=1;align=center;verticalAlign=top;childLayout=stackLayout;horizontal=1;startSize=26;horizontalStack=0;resizeParent=1;resizeParentMax=0;resizeLast=0;collapsible=1;marginBottom=0;whiteSpace=wrap;html=1;rounded=1;labelBackgroundColor=none;fillColor=#BC6C25;strokeColor=#DDA15E;fontColor=#FEFAE0;swimlaneFillColor=#000000;" vertex="1" parent="1">
          <mxGeometry x="298" y="-250" width="250" height="60" as="geometry" />
        </mxCell>
        <mxCell id="4dFmbhaFxBzCHr-sWIdQ-46" value="" style="line;strokeWidth=1;fillColor=none;align=left;verticalAlign=middle;spacingTop=-1;spacingLeft=3;spacingRight=3;rotatable=0;labelPosition=right;points=[];portConstraint=eastwest;rounded=1;labelBackgroundColor=none;strokeColor=#DDA15E;fontColor=#FEFAE0;" vertex="1" parent="4dFmbhaFxBzCHr-sWIdQ-45">
          <mxGeometry y="26" width="250" height="8" as="geometry" />
        </mxCell>
        <mxCell id="4dFmbhaFxBzCHr-sWIdQ-47" value="+ sendRecommendedMatch(User[]): void" style="text;strokeColor=none;fillColor=none;align=left;verticalAlign=top;spacingLeft=4;spacingRight=4;overflow=hidden;rotatable=0;points=[[0,0.5],[1,0.5]];portConstraint=eastwest;whiteSpace=wrap;html=1;rounded=1;labelBackgroundColor=none;fontColor=#FEFAE0;" vertex="1" parent="4dFmbhaFxBzCHr-sWIdQ-45">
          <mxGeometry y="34" width="250" height="26" as="geometry" />
        </mxCell>
        <mxCell id="4dFmbhaFxBzCHr-sWIdQ-67" value="Producer" style="shape=umlFrame;whiteSpace=wrap;html=1;pointerEvents=0;width=80;height=20;rounded=1;labelBackgroundColor=none;fillColor=#BC6C25;strokeColor=#DDA15E;fontColor=#FEFAE0;" vertex="1" parent="1">
          <mxGeometry x="-112" y="-286" width="680" height="116" as="geometry" />
        </mxCell>
        <mxCell id="4dFmbhaFxBzCHr-sWIdQ-96" style="edgeStyle=orthogonalEdgeStyle;rounded=1;orthogonalLoop=1;jettySize=auto;html=1;entryX=0.5;entryY=0;entryDx=0;entryDy=0;labelBackgroundColor=none;fontColor=default;strokeColor=#DDA15E;" edge="1" parent="1" source="4dFmbhaFxBzCHr-sWIdQ-69" target="4dFmbhaFxBzCHr-sWIdQ-73">
          <mxGeometry relative="1" as="geometry" />
        </mxCell>
        <mxCell id="4dFmbhaFxBzCHr-sWIdQ-97" value="1" style="edgeLabel;html=1;align=center;verticalAlign=middle;resizable=0;points=[];rounded=1;labelBackgroundColor=none;fontColor=#FEFAE0;" vertex="1" connectable="0" parent="4dFmbhaFxBzCHr-sWIdQ-96">
          <mxGeometry x="-0.3077" y="1" relative="1" as="geometry">
            <mxPoint x="-6" y="-6" as="offset" />
          </mxGeometry>
        </mxCell>
        <mxCell id="4dFmbhaFxBzCHr-sWIdQ-98" value="2" style="edgeLabel;html=1;align=center;verticalAlign=middle;resizable=0;points=[];rounded=1;labelBackgroundColor=none;fontColor=#FEFAE0;" vertex="1" connectable="0" parent="4dFmbhaFxBzCHr-sWIdQ-96">
          <mxGeometry x="0.3385" y="-1" relative="1" as="geometry">
            <mxPoint x="-4" y="-3" as="offset" />
          </mxGeometry>
        </mxCell>
        <mxCell id="4dFmbhaFxBzCHr-sWIdQ-69" value="Match" style="swimlane;fontStyle=1;align=center;verticalAlign=top;childLayout=stackLayout;horizontal=1;startSize=26;horizontalStack=0;resizeParent=1;resizeParentMax=0;resizeLast=0;collapsible=1;marginBottom=0;whiteSpace=wrap;html=1;rounded=1;labelBackgroundColor=none;fillColor=#BC6C25;strokeColor=#DDA15E;fontColor=#FEFAE0;swimlaneFillColor=#000000;" vertex="1" parent="1">
          <mxGeometry x="108" y="-46" width="170" height="128" as="geometry" />
        </mxCell>
        <mxCell id="4dFmbhaFxBzCHr-sWIdQ-70" value="+ id: UUID&lt;div&gt;+ user1: User&lt;/div&gt;&lt;div&gt;+ user2: User&lt;/div&gt;&lt;div&gt;+ winner_id: UUID&lt;/div&gt;&lt;div&gt;+ startTimestamp: Timestamp&lt;/div&gt;&lt;div&gt;+ endTimestamp: Timestamp&lt;/div&gt;" style="text;strokeColor=none;fillColor=none;align=left;verticalAlign=top;spacingLeft=4;spacingRight=4;overflow=hidden;rotatable=0;points=[[0,0.5],[1,0.5]];portConstraint=eastwest;whiteSpace=wrap;html=1;rounded=1;labelBackgroundColor=none;fontColor=#FEFAE0;" vertex="1" parent="4dFmbhaFxBzCHr-sWIdQ-69">
          <mxGeometry y="26" width="170" height="94" as="geometry" />
        </mxCell>
        <mxCell id="4dFmbhaFxBzCHr-sWIdQ-71" value="" style="line;strokeWidth=1;fillColor=none;align=left;verticalAlign=middle;spacingTop=-1;spacingLeft=3;spacingRight=3;rotatable=0;labelPosition=right;points=[];portConstraint=eastwest;rounded=1;labelBackgroundColor=none;strokeColor=#DDA15E;fontColor=#FEFAE0;" vertex="1" parent="4dFmbhaFxBzCHr-sWIdQ-69">
          <mxGeometry y="120" width="170" height="8" as="geometry" />
        </mxCell>
        <mxCell id="4dFmbhaFxBzCHr-sWIdQ-73" value="User" style="swimlane;fontStyle=1;align=center;verticalAlign=top;childLayout=stackLayout;horizontal=1;startSize=26;horizontalStack=0;resizeParent=1;resizeParentMax=0;resizeLast=0;collapsible=1;marginBottom=0;whiteSpace=wrap;html=1;rounded=1;labelBackgroundColor=none;fillColor=#BC6C25;strokeColor=#DDA15E;fontColor=#FEFAE0;swimlaneFillColor=#000000;" vertex="1" parent="1">
          <mxGeometry x="113" y="134" width="160" height="88" as="geometry" />
        </mxCell>
        <mxCell id="4dFmbhaFxBzCHr-sWIdQ-74" value="+ id: UUID&lt;div&gt;+ name: String&lt;/div&gt;&lt;div&gt;+ rank: Integer&lt;/div&gt;" style="text;strokeColor=none;fillColor=none;align=left;verticalAlign=top;spacingLeft=4;spacingRight=4;overflow=hidden;rotatable=0;points=[[0,0.5],[1,0.5]];portConstraint=eastwest;whiteSpace=wrap;html=1;rounded=1;labelBackgroundColor=none;fontColor=#FEFAE0;" vertex="1" parent="4dFmbhaFxBzCHr-sWIdQ-73">
          <mxGeometry y="26" width="160" height="54" as="geometry" />
        </mxCell>
        <mxCell id="4dFmbhaFxBzCHr-sWIdQ-75" value="" style="line;strokeWidth=1;fillColor=none;align=left;verticalAlign=middle;spacingTop=-1;spacingLeft=3;spacingRight=3;rotatable=0;labelPosition=right;points=[];portConstraint=eastwest;rounded=1;labelBackgroundColor=none;strokeColor=#DDA15E;fontColor=#FEFAE0;" vertex="1" parent="4dFmbhaFxBzCHr-sWIdQ-73">
          <mxGeometry y="80" width="160" height="8" as="geometry" />
        </mxCell>
        <mxCell id="4dFmbhaFxBzCHr-sWIdQ-77" value="Entities" style="shape=umlFrame;whiteSpace=wrap;html=1;pointerEvents=0;width=80;height=20;rounded=1;labelBackgroundColor=none;fillColor=#BC6C25;strokeColor=#DDA15E;fontColor=#FEFAE0;" vertex="1" parent="1">
          <mxGeometry x="68" y="-91.30999999999995" width="250" height="355.31" as="geometry" />
        </mxCell>
        <mxCell id="4dFmbhaFxBzCHr-sWIdQ-102" style="edgeStyle=orthogonalEdgeStyle;rounded=1;orthogonalLoop=1;jettySize=auto;html=1;entryX=1.005;entryY=0.211;entryDx=0;entryDy=0;entryPerimeter=0;labelBackgroundColor=none;fontColor=default;strokeColor=#DDA15E;" edge="1" parent="1" source="4dFmbhaFxBzCHr-sWIdQ-45" target="4dFmbhaFxBzCHr-sWIdQ-70">
          <mxGeometry relative="1" as="geometry">
            <Array as="points">
              <mxPoint x="378" />
            </Array>
          </mxGeometry>
        </mxCell>
        <mxCell id="4dFmbhaFxBzCHr-sWIdQ-104" style="edgeStyle=orthogonalEdgeStyle;rounded=1;orthogonalLoop=1;jettySize=auto;html=1;entryX=0.001;entryY=0.085;entryDx=0;entryDy=0;entryPerimeter=0;labelBackgroundColor=none;fontColor=default;strokeColor=#DDA15E;" edge="1" parent="1">
          <mxGeometry relative="1" as="geometry">
            <mxPoint x="168.02702702702686" y="-186" as="sourcePoint" />
            <mxPoint x="113.15999999999985" y="168.58999999999992" as="targetPoint" />
            <Array as="points">
              <mxPoint x="168" y="-122" />
              <mxPoint x="38" y="-122" />
              <mxPoint x="38" y="169" />
            </Array>
          </mxGeometry>
        </mxCell>
        <mxCell id="4dFmbhaFxBzCHr-sWIdQ-121" style="edgeStyle=orthogonalEdgeStyle;rounded=1;orthogonalLoop=1;jettySize=auto;html=1;entryX=0;entryY=0.5;entryDx=0;entryDy=0;labelBackgroundColor=none;fontColor=default;strokeColor=#DDA15E;" edge="1" parent="1" source="4dFmbhaFxBzCHr-sWIdQ-106" target="4dFmbhaFxBzCHr-sWIdQ-113">
          <mxGeometry relative="1" as="geometry">
            <Array as="points">
              <mxPoint x="-622" y="50" />
            </Array>
          </mxGeometry>
        </mxCell>
        <mxCell id="4dFmbhaFxBzCHr-sWIdQ-122" style="edgeStyle=orthogonalEdgeStyle;rounded=1;orthogonalLoop=1;jettySize=auto;html=1;entryX=0;entryY=0.5;entryDx=0;entryDy=0;labelBackgroundColor=none;fontColor=default;strokeColor=#DDA15E;" edge="1" parent="1" source="4dFmbhaFxBzCHr-sWIdQ-106" target="4dFmbhaFxBzCHr-sWIdQ-110">
          <mxGeometry relative="1" as="geometry">
            <Array as="points">
              <mxPoint x="-622" y="164" />
            </Array>
          </mxGeometry>
        </mxCell>
        <mxCell id="4dFmbhaFxBzCHr-sWIdQ-106" value="MatchManagerApplication" style="swimlane;fontStyle=1;align=center;verticalAlign=top;childLayout=stackLayout;horizontal=1;startSize=26;horizontalStack=0;resizeParent=1;resizeParentMax=0;resizeLast=0;collapsible=1;marginBottom=0;whiteSpace=wrap;html=1;rounded=1;labelBackgroundColor=none;fillColor=#BC6C25;strokeColor=#DDA15E;fontColor=#FEFAE0;swimlaneFillColor=#000000;" vertex="1" parent="1">
          <mxGeometry x="-762" y="70.5" width="160" height="60" as="geometry" />
        </mxCell>
        <mxCell id="4dFmbhaFxBzCHr-sWIdQ-107" value="" style="line;strokeWidth=1;fillColor=none;align=left;verticalAlign=middle;spacingTop=-1;spacingLeft=3;spacingRight=3;rotatable=0;labelPosition=right;points=[];portConstraint=eastwest;rounded=1;labelBackgroundColor=none;strokeColor=#DDA15E;fontColor=#FEFAE0;" vertex="1" parent="4dFmbhaFxBzCHr-sWIdQ-106">
          <mxGeometry y="26" width="160" height="8" as="geometry" />
        </mxCell>
        <mxCell id="4dFmbhaFxBzCHr-sWIdQ-108" value="+ main(String[]): void" style="text;strokeColor=none;fillColor=none;align=left;verticalAlign=top;spacingLeft=4;spacingRight=4;overflow=hidden;rotatable=0;points=[[0,0.5],[1,0.5]];portConstraint=eastwest;whiteSpace=wrap;html=1;rounded=1;labelBackgroundColor=none;fontColor=#FEFAE0;" vertex="1" parent="4dFmbhaFxBzCHr-sWIdQ-106">
          <mxGeometry y="34" width="160" height="26" as="geometry" />
        </mxCell>
        <mxCell id="4dFmbhaFxBzCHr-sWIdQ-124" style="edgeStyle=orthogonalEdgeStyle;rounded=1;orthogonalLoop=1;jettySize=auto;html=1;entryX=0;entryY=0.5;entryDx=0;entryDy=0;labelBackgroundColor=none;fontColor=default;strokeColor=#DDA15E;" edge="1" parent="1" source="4dFmbhaFxBzCHr-sWIdQ-109" target="4dFmbhaFxBzCHr-sWIdQ-115">
          <mxGeometry relative="1" as="geometry" />
        </mxCell>
        <mxCell id="4dFmbhaFxBzCHr-sWIdQ-109" value="UserService&lt;div&gt;&lt;br&gt;&lt;/div&gt;" style="swimlane;fontStyle=1;align=center;verticalAlign=top;childLayout=stackLayout;horizontal=1;startSize=26;horizontalStack=0;resizeParent=1;resizeParentMax=0;resizeLast=0;collapsible=1;marginBottom=0;whiteSpace=wrap;html=1;rounded=1;labelBackgroundColor=none;fillColor=#BC6C25;strokeColor=#DDA15E;fontColor=#FEFAE0;swimlaneFillColor=#000000;" vertex="1" parent="1">
          <mxGeometry x="-522" y="124.5" width="210" height="60" as="geometry" />
        </mxCell>
        <mxCell id="4dFmbhaFxBzCHr-sWIdQ-110" value="- userRepository: UserRepository" style="text;strokeColor=none;fillColor=none;align=left;verticalAlign=top;spacingLeft=4;spacingRight=4;overflow=hidden;rotatable=0;points=[[0,0.5],[1,0.5]];portConstraint=eastwest;whiteSpace=wrap;html=1;rounded=1;labelBackgroundColor=none;fontColor=#FEFAE0;" vertex="1" parent="4dFmbhaFxBzCHr-sWIdQ-109">
          <mxGeometry y="26" width="210" height="26" as="geometry" />
        </mxCell>
        <mxCell id="4dFmbhaFxBzCHr-sWIdQ-111" value="" style="line;strokeWidth=1;fillColor=none;align=left;verticalAlign=middle;spacingTop=-1;spacingLeft=3;spacingRight=3;rotatable=0;labelPosition=right;points=[];portConstraint=eastwest;rounded=1;labelBackgroundColor=none;strokeColor=#DDA15E;fontColor=#FEFAE0;" vertex="1" parent="4dFmbhaFxBzCHr-sWIdQ-109">
          <mxGeometry y="52" width="210" height="8" as="geometry" />
        </mxCell>
        <mxCell id="4dFmbhaFxBzCHr-sWIdQ-123" style="edgeStyle=orthogonalEdgeStyle;rounded=1;orthogonalLoop=1;jettySize=auto;html=1;entryX=0;entryY=0.5;entryDx=0;entryDy=0;labelBackgroundColor=none;fontColor=default;strokeColor=#DDA15E;" edge="1" parent="1" source="4dFmbhaFxBzCHr-sWIdQ-112" target="4dFmbhaFxBzCHr-sWIdQ-118">
          <mxGeometry relative="1" as="geometry" />
        </mxCell>
        <mxCell id="4dFmbhaFxBzCHr-sWIdQ-112" value="&lt;div&gt;MatchService&lt;/div&gt;" style="swimlane;fontStyle=1;align=center;verticalAlign=top;childLayout=stackLayout;horizontal=1;startSize=26;horizontalStack=0;resizeParent=1;resizeParentMax=0;resizeLast=0;collapsible=1;marginBottom=0;whiteSpace=wrap;html=1;rounded=1;labelBackgroundColor=none;fillColor=#BC6C25;strokeColor=#DDA15E;fontColor=#FEFAE0;swimlaneFillColor=#000000;" vertex="1" parent="1">
          <mxGeometry x="-522" y="10.5" width="216" height="60" as="geometry" />
        </mxCell>
        <mxCell id="4dFmbhaFxBzCHr-sWIdQ-113" value="- matchRepository: MatchRepository" style="text;strokeColor=none;fillColor=none;align=left;verticalAlign=top;spacingLeft=4;spacingRight=4;overflow=hidden;rotatable=0;points=[[0,0.5],[1,0.5]];portConstraint=eastwest;whiteSpace=wrap;html=1;rounded=1;labelBackgroundColor=none;fontColor=#FEFAE0;" vertex="1" parent="4dFmbhaFxBzCHr-sWIdQ-112">
          <mxGeometry y="26" width="216" height="26" as="geometry" />
        </mxCell>
        <mxCell id="4dFmbhaFxBzCHr-sWIdQ-114" value="" style="line;strokeWidth=1;fillColor=none;align=left;verticalAlign=middle;spacingTop=-1;spacingLeft=3;spacingRight=3;rotatable=0;labelPosition=right;points=[];portConstraint=eastwest;rounded=1;labelBackgroundColor=none;strokeColor=#DDA15E;fontColor=#FEFAE0;" vertex="1" parent="4dFmbhaFxBzCHr-sWIdQ-112">
          <mxGeometry y="52" width="216" height="8" as="geometry" />
        </mxCell>
        <mxCell id="4dFmbhaFxBzCHr-sWIdQ-129" style="edgeStyle=orthogonalEdgeStyle;rounded=1;orthogonalLoop=1;jettySize=auto;html=1;entryX=-0.003;entryY=0.148;entryDx=0;entryDy=0;entryPerimeter=0;labelBackgroundColor=none;fontColor=default;strokeColor=#DDA15E;" edge="1" parent="1" source="4dFmbhaFxBzCHr-sWIdQ-115" target="4dFmbhaFxBzCHr-sWIdQ-73">
          <mxGeometry relative="1" as="geometry">
            <Array as="points">
              <mxPoint x="-22" y="147" />
              <mxPoint x="-22" y="147" />
            </Array>
          </mxGeometry>
        </mxCell>
        <mxCell id="4dFmbhaFxBzCHr-sWIdQ-115" value="&lt;span style=&quot;font-weight: 400; text-align: left;&quot;&gt;&amp;lt;&amp;lt;interface&amp;gt;&amp;gt;&lt;/span&gt;&lt;br&gt;&lt;div&gt;UserRepository&lt;/div&gt;" style="swimlane;fontStyle=1;align=center;verticalAlign=top;childLayout=stackLayout;horizontal=1;startSize=40;horizontalStack=0;resizeParent=1;resizeParentMax=0;resizeLast=0;collapsible=1;marginBottom=0;whiteSpace=wrap;html=1;rounded=1;labelBackgroundColor=none;fillColor=#BC6C25;strokeColor=#DDA15E;fontColor=#FEFAE0;swimlaneFillColor=#000000;" vertex="1" parent="1">
          <mxGeometry x="-232" y="117.5" width="160" height="74" as="geometry" />
        </mxCell>
        <mxCell id="4dFmbhaFxBzCHr-sWIdQ-116" value="" style="line;strokeWidth=1;fillColor=none;align=left;verticalAlign=middle;spacingTop=-1;spacingLeft=3;spacingRight=3;rotatable=0;labelPosition=right;points=[];portConstraint=eastwest;rounded=1;labelBackgroundColor=none;strokeColor=#DDA15E;fontColor=#FEFAE0;" vertex="1" parent="4dFmbhaFxBzCHr-sWIdQ-115">
          <mxGeometry y="40" width="160" height="8" as="geometry" />
        </mxCell>
        <mxCell id="4dFmbhaFxBzCHr-sWIdQ-117" value="+ findById(UUID): User" style="text;strokeColor=none;fillColor=none;align=left;verticalAlign=top;spacingLeft=4;spacingRight=4;overflow=hidden;rotatable=0;points=[[0,0.5],[1,0.5]];portConstraint=eastwest;whiteSpace=wrap;html=1;rounded=1;labelBackgroundColor=none;fontColor=#FEFAE0;" vertex="1" parent="4dFmbhaFxBzCHr-sWIdQ-115">
          <mxGeometry y="48" width="160" height="26" as="geometry" />
        </mxCell>
        <mxCell id="4dFmbhaFxBzCHr-sWIdQ-118" value="&lt;span style=&quot;font-weight: 400; text-align: left;&quot;&gt;&amp;lt;&amp;lt;interface&amp;gt;&amp;gt;&lt;/span&gt;&lt;br&gt;&lt;div&gt;MatchRepository&lt;/div&gt;" style="swimlane;fontStyle=1;align=center;verticalAlign=top;childLayout=stackLayout;horizontal=1;startSize=40;horizontalStack=0;resizeParent=1;resizeParentMax=0;resizeLast=0;collapsible=1;marginBottom=0;whiteSpace=wrap;html=1;rounded=1;labelBackgroundColor=none;fillColor=#BC6C25;strokeColor=#DDA15E;fontColor=#FEFAE0;swimlaneFillColor=#000000;" vertex="1" parent="1">
          <mxGeometry x="-232" y="3.5" width="160" height="74" as="geometry" />
        </mxCell>
        <mxCell id="4dFmbhaFxBzCHr-sWIdQ-119" value="" style="line;strokeWidth=1;fillColor=none;align=left;verticalAlign=middle;spacingTop=-1;spacingLeft=3;spacingRight=3;rotatable=0;labelPosition=right;points=[];portConstraint=eastwest;rounded=1;labelBackgroundColor=none;strokeColor=#DDA15E;fontColor=#FEFAE0;" vertex="1" parent="4dFmbhaFxBzCHr-sWIdQ-118">
          <mxGeometry y="40" width="160" height="8" as="geometry" />
        </mxCell>
        <mxCell id="4dFmbhaFxBzCHr-sWIdQ-120" value="+ findById(UUID): Match" style="text;strokeColor=none;fillColor=none;align=left;verticalAlign=top;spacingLeft=4;spacingRight=4;overflow=hidden;rotatable=0;points=[[0,0.5],[1,0.5]];portConstraint=eastwest;whiteSpace=wrap;html=1;rounded=1;labelBackgroundColor=none;fontColor=#FEFAE0;" vertex="1" parent="4dFmbhaFxBzCHr-sWIdQ-118">
          <mxGeometry y="48" width="160" height="26" as="geometry" />
        </mxCell>
        <mxCell id="4dFmbhaFxBzCHr-sWIdQ-126" value="Service" style="shape=umlFrame;whiteSpace=wrap;html=1;pointerEvents=0;width=80;height=20;rounded=1;labelBackgroundColor=none;fillColor=#BC6C25;strokeColor=#DDA15E;fontColor=#FEFAE0;" vertex="1" parent="1">
          <mxGeometry x="-542" y="-37" width="250" height="251" as="geometry" />
        </mxCell>
        <mxCell id="4dFmbhaFxBzCHr-sWIdQ-127" value="Repository" style="shape=umlFrame;whiteSpace=wrap;html=1;pointerEvents=0;width=80;height=20;rounded=1;labelBackgroundColor=none;fillColor=#BC6C25;strokeColor=#DDA15E;fontColor=#FEFAE0;" vertex="1" parent="1">
          <mxGeometry x="-252" y="-37" width="200" height="251" as="geometry" />
        </mxCell>
        <mxCell id="4dFmbhaFxBzCHr-sWIdQ-128" style="edgeStyle=orthogonalEdgeStyle;rounded=1;orthogonalLoop=1;jettySize=auto;html=1;entryX=0.005;entryY=0.646;entryDx=0;entryDy=0;entryPerimeter=0;labelBackgroundColor=none;fontColor=default;strokeColor=#DDA15E;" edge="1" parent="1" source="4dFmbhaFxBzCHr-sWIdQ-118" target="4dFmbhaFxBzCHr-sWIdQ-70">
          <mxGeometry relative="1" as="geometry" />
        </mxCell>
        <mxCell id="4dFmbhaFxBzCHr-sWIdQ-130" value="FrontendMockConsumer" style="swimlane;fontStyle=1;align=center;verticalAlign=top;childLayout=stackLayout;horizontal=1;startSize=26;horizontalStack=0;resizeParent=1;resizeParentMax=0;resizeLast=0;collapsible=1;marginBottom=0;whiteSpace=wrap;html=1;rounded=1;labelBackgroundColor=none;fillColor=#BC6C25;strokeColor=#DDA15E;fontColor=#FEFAE0;swimlaneFillColor=#000000;" vertex="1" parent="1">
          <mxGeometry x="478" y="24" width="250" height="60" as="geometry" />
        </mxCell>
        <mxCell id="4dFmbhaFxBzCHr-sWIdQ-131" value="" style="line;strokeWidth=1;fillColor=none;align=left;verticalAlign=middle;spacingTop=-1;spacingLeft=3;spacingRight=3;rotatable=0;labelPosition=right;points=[];portConstraint=eastwest;rounded=1;labelBackgroundColor=none;strokeColor=#DDA15E;fontColor=#FEFAE0;" vertex="1" parent="4dFmbhaFxBzCHr-sWIdQ-130">
          <mxGeometry y="26" width="250" height="8" as="geometry" />
        </mxCell>
        <mxCell id="4dFmbhaFxBzCHr-sWIdQ-132" value="+ matchReceive(String): void" style="text;strokeColor=none;fillColor=none;align=left;verticalAlign=top;spacingLeft=4;spacingRight=4;overflow=hidden;rotatable=0;points=[[0,0.5],[1,0.5]];portConstraint=eastwest;whiteSpace=wrap;html=1;rounded=1;labelBackgroundColor=none;fontColor=#FEFAE0;" vertex="1" parent="4dFmbhaFxBzCHr-sWIdQ-130">
          <mxGeometry y="34" width="250" height="26" as="geometry" />
        </mxCell>
        <mxCell id="4dFmbhaFxBzCHr-sWIdQ-133" value="MatchManagerConsumer" style="swimlane;fontStyle=1;align=center;verticalAlign=top;childLayout=stackLayout;horizontal=1;startSize=26;horizontalStack=0;resizeParent=1;resizeParentMax=0;resizeLast=0;collapsible=1;marginBottom=0;whiteSpace=wrap;html=1;rounded=1;labelBackgroundColor=none;fillColor=#BC6C25;strokeColor=#DDA15E;fontColor=#FEFAE0;swimlaneFillColor=#000000;" vertex="1" parent="1">
          <mxGeometry x="478" y="94" width="250" height="70" as="geometry" />
        </mxCell>
        <mxCell id="4dFmbhaFxBzCHr-sWIdQ-134" value="" style="line;strokeWidth=1;fillColor=none;align=left;verticalAlign=middle;spacingTop=-1;spacingLeft=3;spacingRight=3;rotatable=0;labelPosition=right;points=[];portConstraint=eastwest;rounded=1;labelBackgroundColor=none;strokeColor=#DDA15E;fontColor=#FEFAE0;" vertex="1" parent="4dFmbhaFxBzCHr-sWIdQ-133">
          <mxGeometry y="26" width="250" height="8" as="geometry" />
        </mxCell>
        <mxCell id="4dFmbhaFxBzCHr-sWIdQ-135" value="+ userReceive(String): void&lt;div&gt;+ matchReceive(String): void&lt;/div&gt;" style="text;strokeColor=none;fillColor=none;align=left;verticalAlign=top;spacingLeft=4;spacingRight=4;overflow=hidden;rotatable=0;points=[[0,0.5],[1,0.5]];portConstraint=eastwest;whiteSpace=wrap;html=1;rounded=1;labelBackgroundColor=none;fontColor=#FEFAE0;" vertex="1" parent="4dFmbhaFxBzCHr-sWIdQ-133">
          <mxGeometry y="34" width="250" height="36" as="geometry" />
        </mxCell>
        <mxCell id="4dFmbhaFxBzCHr-sWIdQ-140" style="edgeStyle=orthogonalEdgeStyle;rounded=1;orthogonalLoop=1;jettySize=auto;html=1;entryX=1.013;entryY=0.963;entryDx=0;entryDy=0;entryPerimeter=0;labelBackgroundColor=none;fontColor=default;strokeColor=#DDA15E;" edge="1" parent="1" source="4dFmbhaFxBzCHr-sWIdQ-136" target="4dFmbhaFxBzCHr-sWIdQ-74">
          <mxGeometry relative="1" as="geometry">
            <Array as="points">
              <mxPoint x="428" y="212" />
              <mxPoint x="428" y="212" />
            </Array>
          </mxGeometry>
        </mxCell>
        <mxCell id="4dFmbhaFxBzCHr-sWIdQ-136" value="MatchRecommenderMockConsumer" style="swimlane;fontStyle=1;align=center;verticalAlign=top;childLayout=stackLayout;horizontal=1;startSize=26;horizontalStack=0;resizeParent=1;resizeParentMax=0;resizeLast=0;collapsible=1;marginBottom=0;whiteSpace=wrap;html=1;rounded=1;labelBackgroundColor=none;fillColor=#BC6C25;strokeColor=#DDA15E;fontColor=#FEFAE0;swimlaneFillColor=#000000;" vertex="1" parent="1">
          <mxGeometry x="478" y="184" width="250" height="60" as="geometry" />
        </mxCell>
        <mxCell id="4dFmbhaFxBzCHr-sWIdQ-137" value="" style="line;strokeWidth=1;fillColor=none;align=left;verticalAlign=middle;spacingTop=-1;spacingLeft=3;spacingRight=3;rotatable=0;labelPosition=right;points=[];portConstraint=eastwest;rounded=1;labelBackgroundColor=none;strokeColor=#DDA15E;fontColor=#FEFAE0;" vertex="1" parent="4dFmbhaFxBzCHr-sWIdQ-136">
          <mxGeometry y="26" width="250" height="8" as="geometry" />
        </mxCell>
        <mxCell id="4dFmbhaFxBzCHr-sWIdQ-138" value="+ userReceive(String): void" style="text;strokeColor=none;fillColor=none;align=left;verticalAlign=top;spacingLeft=4;spacingRight=4;overflow=hidden;rotatable=0;points=[[0,0.5],[1,0.5]];portConstraint=eastwest;whiteSpace=wrap;html=1;rounded=1;labelBackgroundColor=none;fontColor=#FEFAE0;" vertex="1" parent="4dFmbhaFxBzCHr-sWIdQ-136">
          <mxGeometry y="34" width="250" height="26" as="geometry" />
        </mxCell>
        <mxCell id="4dFmbhaFxBzCHr-sWIdQ-139" value="Consumer" style="shape=umlFrame;whiteSpace=wrap;html=1;pointerEvents=0;width=80;height=20;rounded=1;labelBackgroundColor=none;fillColor=#BC6C25;strokeColor=#DDA15E;fontColor=#FEFAE0;" vertex="1" parent="1">
          <mxGeometry x="458" y="-16" width="290" height="280" as="geometry" />
        </mxCell>
        <mxCell id="4dFmbhaFxBzCHr-sWIdQ-142" style="edgeStyle=orthogonalEdgeStyle;rounded=1;orthogonalLoop=1;jettySize=auto;html=1;entryX=1;entryY=0.5;entryDx=0;entryDy=0;labelBackgroundColor=none;fontColor=default;strokeColor=#DDA15E;" edge="1" parent="1" source="4dFmbhaFxBzCHr-sWIdQ-135" target="4dFmbhaFxBzCHr-sWIdQ-73">
          <mxGeometry relative="1" as="geometry">
            <Array as="points">
              <mxPoint x="418" y="146" />
              <mxPoint x="418" y="178" />
            </Array>
          </mxGeometry>
        </mxCell>
        <mxCell id="4dFmbhaFxBzCHr-sWIdQ-143" style="edgeStyle=orthogonalEdgeStyle;rounded=1;orthogonalLoop=1;jettySize=auto;html=1;entryX=1.002;entryY=0.936;entryDx=0;entryDy=0;entryPerimeter=0;exitX=-0.004;exitY=-0.093;exitDx=0;exitDy=0;exitPerimeter=0;labelBackgroundColor=none;fontColor=default;strokeColor=#DDA15E;" edge="1" parent="1" source="4dFmbhaFxBzCHr-sWIdQ-135" target="4dFmbhaFxBzCHr-sWIdQ-70">
          <mxGeometry relative="1" as="geometry">
            <Array as="points">
              <mxPoint x="418" y="125" />
              <mxPoint x="418" y="68" />
            </Array>
          </mxGeometry>
        </mxCell>
        <mxCell id="4dFmbhaFxBzCHr-sWIdQ-145" style="edgeStyle=orthogonalEdgeStyle;rounded=1;orthogonalLoop=1;jettySize=auto;html=1;entryX=1.009;entryY=0.589;entryDx=0;entryDy=0;entryPerimeter=0;labelBackgroundColor=none;fontColor=default;strokeColor=#DDA15E;" edge="1" parent="1" source="4dFmbhaFxBzCHr-sWIdQ-130" target="4dFmbhaFxBzCHr-sWIdQ-70">
          <mxGeometry relative="1" as="geometry">
            <Array as="points">
              <mxPoint x="378" y="35" />
            </Array>
          </mxGeometry>
        </mxCell>
      </root>
    </mxGraphModel>
  </diagram>
</mxfile>
